<svg xmlns="http://www.w3.org/2000/svg" viewBox="0 0 39.28 42.24"><title>annoweb</title><rect x="1.14" y="1" width="30.4" height="40.24" rx="2.16" ry="2.16" fill="none"/><path d="M15.66,28.35,14.6,32.15H11.13l4.53-14.83h4.4l4.6,14.83H21.05l-1.14-3.81Zm3.76-2.51-.92-3.15c-.26-.88-.53-2-.75-2.86h0c-.22.88-.44,2-.68,2.86l-.88,3.15Z" transform="translate(-3.86 -3)" fill="#0c2"/><path d="M27.74,32.15,24.22,17.32H27.8l1.12,6.12c.33,1.76.64,3.67.88,5.17h0c.24-1.61.59-3.39,1-5.21l1.25-6.07h3.56l1.19,6.25c.33,1.74.57,3.32.79,5h0c.22-1.65.55-3.39.86-5.15l1.21-6.07h3.41L39.31,32.15H35.68l-1.25-6.38c-.29-1.5-.53-2.88-.71-4.58h0c-.26,1.67-.51,3.08-.86,4.58l-1.41,6.38Z" transform="translate(-3.86 -3)" fill="#0c2"/><path d="M32.1,45.24H8a4.16,4.16,0,0,1-4.16-4.16V7.16A4.16,4.16,0,0,1,8,3H32.1a4.16,4.16,0,0,1,4.16,4.16V15.5a1,1,0,0,1-1,1h0a1,1,0,0,1-1-1V7.16A2.16,2.16,0,0,0,32.1,5H8A2.16,2.16,0,0,0,5.86,7.16V41.08A2.16,2.16,0,0,0,8,43.24H32.1a2.16,2.16,0,0,0,2.16-2.16V34a1,1,0,0,1,1-1h0a1,1,0,0,1,1,1v7.08A4.16,4.16,0,0,1,32.1,45.24Z" transform="translate(-3.86 -3)"/></svg>